<?xml version="1.0" standalone="no"?><!DOCTYPE svg PUBLIC "-//W3C//DTD SVG 1.1//EN" "http://www.w3.org/Graphics/SVG/1.1/DTD/svg11.dtd"><svg t="1632389857307" class="icon" viewBox="0 0 1024 1024" version="1.1" xmlns="http://www.w3.org/2000/svg" p-id="3101" xmlns:xlink="http://www.w3.org/1999/xlink" width="200" height="200"><defs><style type="text/css"></style></defs><path d="M797 476.9c0-34.8-28.2-62.9-62.9-62.9H284.9c-34.8 0-62.9 28.2-62.9 62.9V793c0 34.8 28.2 62.9 62.9 62.9H734c34.8 0 62.9-28.2 62.9-62.9V476.9z" fill="#515151" p-id="3102"></path><path d="M508.5 753.4l66.5 48.7V611H442v191.1z" fill="#515151" p-id="3103"></path><path d="M509.4 580.1m-99.9 0a99.9 99.9 0 1 0 199.8 0 99.9 99.9 0 1 0-199.8 0Z" fill="#515151" p-id="3104"></path><path d="M169.7 356c-0.3 0-0.6-0.8-0.7-1.3-0.1-0.3 0.1-1.1 0.3-1.4l342.7-224 342.7 223.9c0.2 0.4 0.4 1.2 0.3 1.5-0.1 0.4-0.5 1.2-0.7 1.2H169.7z" fill="#515151" p-id="3105"></path><path d="M512 154.6L788.1 335H235.9L512 154.6m0-46.3c-4 0-8 1.1-11.5 3.4l-343 224.1c-7.8 5.1-11.3 15.9-8.6 24.8 2.6 8.9 10.8 16.3 20.1 16.3h686c9.3 0 17.5-7.4 20.1-16.3 2.6-8.9-0.9-19.7-8.6-24.8l-343-224.2c-3.5-2.1-7.5-3.3-11.5-3.3z" fill="#515151" p-id="3106"></path></svg>